<svg width="108" height="80" viewBox="0 0 108 80" fill="none" xmlns="http://www.w3.org/2000/svg">
<g filter="url(#filter0_d_35_15)">
<rect x="8" y="7" width="92" height="64" rx="24" fill="white"/>
</g>
<path d="M50.3551 27.6436C47.4685 28.6578 44.972 30.8423 43.5677 33.5728C43.0997 34.509 42.7096 35.5232 42.5535 36.6154C42.0074 39.1899 42.3975 41.9984 43.5677 44.3389C44.3479 45.8992 45.4401 47.2254 46.8444 48.3177C48.0926 49.3319 49.5749 50.112 51.2132 50.5021C53.2416 51.0482 55.348 51.0482 57.2984 50.5801C59.0928 50.19 60.8091 49.3319 62.2134 48.0056C63.6957 46.6793 64.7099 44.963 65.256 43.0126C65.8801 40.9842 65.9581 38.7998 65.568 36.6934C61.8233 36.6934 58.0786 36.6934 54.3338 36.6934C54.3338 38.2537 54.3338 39.814 54.3338 41.3743C56.5183 41.3743 58.7027 41.3743 60.8091 41.3743C60.5751 42.8566 59.6389 44.2609 58.3906 45.041C57.6105 45.5871 56.6743 45.8992 55.7381 46.0552C54.8019 46.2113 53.7877 46.2113 52.8516 46.0552C51.9154 45.8992 50.9792 45.4311 50.199 44.885C48.9508 44.0268 47.9366 42.7006 47.4685 41.2183C46.9224 39.736 46.9224 38.0977 47.4685 36.5374C47.8586 35.5232 48.4047 34.509 49.1848 33.7288C50.121 32.7146 51.3693 32.0125 52.7735 31.7784C53.9438 31.5444 55.114 31.5444 56.2842 31.9345C57.2204 32.2465 58.1566 32.7926 58.8587 33.4168C59.5609 32.7146 60.341 31.9345 61.0432 31.2323C61.4332 30.8423 61.8233 30.4522 62.2134 30.0621C61.1212 29.0479 59.7949 28.1897 58.3906 27.6436C55.8161 26.7855 52.9296 26.7855 50.3551 27.6436Z" fill="white"/>
<path d="M50.3551 27.6436C52.9296 26.7854 55.8161 26.7854 58.3906 27.7216C59.7949 28.2677 61.1212 29.0479 62.2134 30.1401C61.8233 30.5302 61.4332 30.9202 61.0432 31.3103C60.341 32.0124 59.5609 32.7926 58.8587 33.4947C58.1566 32.7926 57.2204 32.2465 56.2842 32.0124C55.192 31.7004 53.9438 31.6224 52.7735 31.8564C51.4473 32.1685 50.199 32.8706 49.1848 33.8068C48.4047 34.5869 47.7806 35.6011 47.4685 36.6153C46.1423 35.6011 44.894 34.5869 43.5677 33.5727C44.972 30.8422 47.4685 28.6578 50.3551 27.6436Z" fill="#EA4335"/>
<path d="M42.5535 36.6153C42.7876 35.6011 43.0997 34.587 43.5677 33.5728C44.894 34.587 46.1423 35.6011 47.4685 36.6153C46.9224 38.0976 46.9224 39.736 47.4685 41.2963C46.1423 42.3105 44.894 43.3247 43.5677 44.3389C42.3975 41.9204 42.0074 39.1899 42.5535 36.6153Z" fill="#FBBC05"/>
<path d="M54.2559 36.6934C58.0006 36.6934 61.7453 36.6934 65.4901 36.6934C65.8801 38.7998 65.8021 40.9843 65.178 43.0127C64.6319 44.885 63.6177 46.6014 62.1354 48.0056C60.8872 46.9914 59.6389 46.0552 58.3127 45.041C59.5609 44.1829 60.4191 42.8566 60.7311 41.3743C58.5467 41.3743 56.3623 41.3743 54.2559 41.3743C54.2559 39.814 54.2559 38.2537 54.2559 36.6934Z" fill="#4285F4"/>
<path d="M43.5677 44.3389C44.894 43.3247 46.1423 42.3105 47.4685 41.2963C47.9366 42.7786 48.9508 44.1048 50.199 44.963C50.9792 45.5091 51.9154 45.8992 52.8516 46.1332C53.7877 46.2892 54.7239 46.2892 55.7381 46.1332C56.6743 45.9772 57.6105 45.5871 58.3906 45.119C59.6389 46.1332 60.8871 47.0694 62.2134 48.0836C60.8091 49.3318 59.1708 50.19 57.2984 50.6581C55.27 51.1262 53.1636 51.1262 51.2132 50.5801C49.6529 50.19 48.1706 49.4098 46.8444 48.3956C45.5181 47.2254 44.3479 45.8211 43.5677 44.3389Z" fill="#34A853"/>
<defs>
<filter id="filter0_d_35_15" x="0" y="0" width="108" height="80" filterUnits="userSpaceOnUse" color-interpolation-filters="sRGB">
<feFlood flood-opacity="0" result="BackgroundImageFix"/>
<feColorMatrix in="SourceAlpha" type="matrix" values="0 0 0 0 0 0 0 0 0 0 0 0 0 0 0 0 0 0 127 0" result="hardAlpha"/>
<feOffset dy="1"/>
<feGaussianBlur stdDeviation="4"/>
<feColorMatrix type="matrix" values="0 0 0 0 0 0 0 0 0 0 0 0 0 0 0 0 0 0 0.05 0"/>
<feBlend mode="normal" in2="BackgroundImageFix" result="effect1_dropShadow_35_15"/>
<feBlend mode="normal" in="SourceGraphic" in2="effect1_dropShadow_35_15" result="shape"/>
</filter>
</defs>
</svg>
